<svg width="64" height="64" viewBox="0 0 64 64" fill="none" xmlns="http://www.w3.org/2000/svg"><path d="M17.981 27.89a14.68 14.68 0 0 1 10.113-10.046" stroke="#2B2A29" stroke-width="3" stroke-miterlimit="22.9256" stroke-linecap="round"/><path d="M36.296 17.91a14.678 14.678 0 0 1 9.812 9.735" stroke="#2B2A29" stroke-width="3" stroke-miterlimit="22.9256" stroke-linecap="round"/><path d="M46.16 36.127a14.68 14.68 0 0 1-9.494 9.788" stroke="#2B2A29" stroke-width="3" stroke-miterlimit="22.9256" stroke-linecap="round"/><path d="M27.857 46.028a14.68 14.68 0 0 1-9.814-9.771" stroke="#2B2A29" stroke-width="3" stroke-miterlimit="22.9256" stroke-linecap="round"/><path d="M32.09 36.136a3.99 3.99 0 1 0 0-7.982 3.99 3.99 0 0 0 0 7.982z" fill="#2B2A29" stroke="#2B2A29" stroke-width="0.755906" stroke-miterlimit="22.9256"/><path d="M5.51 28.105A26.864 26.864 0 0 1 28.045 5.44" stroke="#2B2A29" stroke-width="3" stroke-miterlimit="22.9256" stroke-linecap="round"/><path d="M36.438 5.488a26.864 26.864 0 0 1 22.134 21.986" stroke="#2B2A29" stroke-width="3" stroke-miterlimit="22.9256" stroke-linecap="round"/><path d="M58.629 36.177a26.864 26.864 0 0 1-21.794 22.265" stroke="#2B2A29" stroke-width="3" stroke-miterlimit="22.9256" stroke-linecap="round"/><path d="M27.512 58.47A26.864 26.864 0 0 1 5.586 36.382" stroke="#2B2A29" stroke-width="3" stroke-miterlimit="22.9256" stroke-linecap="round"/><path d="M33.364 41.37a1.365 1.365 0 1 0-2.73 0v21.265a1.365 1.365 0 1 0 2.73 0V41.37z" fill="#2B2A29"/><path d="M33.364 1.365a1.365 1.365 0 1 0-2.73 0v21.264a1.365 1.365 0 1 0 2.73 0V1.365z" fill="#2B2A29"/><path d="M41.37 30.636a1.365 1.365 0 1 0 0 2.73h21.264a1.365 1.365 0 1 0 0-2.73H41.37z" fill="#2B2A29"/><path d="M1.365 30.636a1.365 1.365 0 1 0 0 2.73h21.264a1.365 1.365 0 1 0 0-2.73H1.365z" fill="#2B2A29"/></svg>