<svg width="63" height="64" viewBox="0 0 63 64" fill="none" xmlns="http://www.w3.org/2000/svg"><path clip-rule="evenodd" d="M44.137 7.479a23.74 23.74 0 0 1 5.243 2.239c-1.987 2.696-1.786 6.558.604 9.02a6.536 6.536 0 0 0 8.755.621 25.32 25.32 0 0 1 2.174 5.403c-3.258.459-5.768 3.336-5.768 6.818 0 3.483 2.51 6.36 5.768 6.82a25.31 25.31 0 0 1-2.175 5.402 6.535 6.535 0 0 0-8.757.62c-2.39 2.462-2.59 6.324-.603 9.021a23.793 23.793 0 0 1-5.243 2.24c-.445-3.356-3.238-5.942-6.618-5.942-3.38.001-6.173 2.587-6.618 5.944a23.774 23.774 0 0 1-5.244-2.24c1.988-2.698 1.787-6.56-.603-9.021A6.536 6.536 0 0 0 16.3 43.8a25.334 25.334 0 0 1-2.175-5.4c3.258-.46 5.768-3.337 5.768-6.819 0-3.48-2.51-6.358-5.768-6.817A25.315 25.315 0 0 1 16.3 19.36a6.535 6.535 0 0 0 8.755-.62c2.39-2.462 2.59-6.324.604-9.02A23.793 23.793 0 0 1 30.9 7.478c.445 3.355 3.238 5.941 6.617 5.941 3.38.001 6.172-2.585 6.617-5.941z" stroke="#2B2A29" stroke-width="3" stroke-miterlimit="22.9256" stroke-linecap="round" stroke-linejoin="round"/><path d="M47.358 38.352c-2.194 3.373-5.875 5.397-9.816 5.397-6.525-.001-11.815-5.451-11.815-12.174 0-6.723 5.29-12.174 11.815-12.174 4.08 0 7.872 2.17 10.029 5.737" stroke="#2B2A29" stroke-width="3" stroke-miterlimit="22.9256" stroke-linecap="round" stroke-linejoin="round"/><path d="M49.28 30.037a12.51 12.51 0 0 1-.057 3.5" stroke="#2B2A29" stroke-width="3" stroke-miterlimit="22.9256" stroke-linecap="round" stroke-linejoin="round"/><path d="M1.527 10.297h12.885L32.198 2h16.735" stroke="#2B2A29" stroke-width="3" stroke-miterlimit="22.9256" stroke-linecap="round" stroke-linejoin="round"/><path d="M51.156 2.205h1.992" stroke="#2B2A29" stroke-width="3" stroke-miterlimit="22.9256" stroke-linecap="round" stroke-linejoin="round"/><path d="M55.316 2.205h1.992" stroke="#2B2A29" stroke-width="3" stroke-miterlimit="22.9256" stroke-linecap="round" stroke-linejoin="round"/><path d="M59.008 2.205H61" stroke="#2B2A29" stroke-width="3" stroke-miterlimit="22.9256" stroke-linecap="round" stroke-linejoin="round"/><path d="M1.527 53.71h12.885l17.786 8.296h16.735" stroke="#2B2A29" stroke-width="3" stroke-miterlimit="22.9256" stroke-linecap="round" stroke-linejoin="round"/><path d="M51.156 61.795h1.992" stroke="#2B2A29" stroke-width="3" stroke-miterlimit="22.9256" stroke-linecap="round" stroke-linejoin="round"/><path d="M55.316 61.795h1.992" stroke="#2B2A29" stroke-width="3" stroke-miterlimit="22.9256" stroke-linecap="round" stroke-linejoin="round"/><path d="M59.008 61.795H61" stroke="#2B2A29" stroke-width="3" stroke-miterlimit="22.9256" stroke-linecap="round" stroke-linejoin="round"/></svg>