<svg width="64" height="64" viewBox="0 0 64 64" fill="none" xmlns="http://www.w3.org/2000/svg"><path d="M20.665 25.471a5.062 5.062 0 1 0 0-10.123 5.062 5.062 0 0 0 0 10.124z" stroke="#2B2A29" stroke-width="3" stroke-miterlimit="22.9256"/><path d="M45.177 40.625a5.062 5.062 0 1 0 0-10.124 5.062 5.062 0 0 0 0 10.125z" stroke="#2B2A29" stroke-width="3" stroke-miterlimit="22.9256"/><path d="M17.337 24.224 2 39.358" stroke="#2B2A29" stroke-width="3" stroke-miterlimit="22.9256"/><path d="m25.065 22.912 15.825 9.96" stroke="#2B2A29" stroke-width="3" stroke-miterlimit="22.9256"/><path d="M49.605 33.11 62 25.814" stroke="#2B2A29" stroke-width="3" stroke-miterlimit="22.9256"/><path d="M57.916 2H6.084A4.084 4.084 0 0 0 2 6.084v51.832A4.084 4.084 0 0 0 6.084 62h51.832A4.084 4.084 0 0 0 62 57.916V6.084A4.084 4.084 0 0 0 57.916 2z" stroke="#2B2A29" stroke-width="3" stroke-miterlimit="22.9256"/></svg>