<svg width="382" height="61" viewBox="0 0 382 61" fill="none" xmlns="http://www.w3.org/2000/svg"><path d="M40.93.636C30.538.636 24.76 6.521 24.76 18.557c-.001 11.983 5.725 17.868 16.17 17.868H54.77V30.17h-13.84c-6.945-.001-9.915-3.448-9.915-11.613 0-8.218 3.023-11.664 9.915-11.664H54.77V.636h-13.84zm27.465 7.688c0-1.379.902-2.28 2.545-2.28 1.432 0 2.227.743 2.492 1.909l5.09 21.897c1.06 4.613 3.658 7.212 8.643 7.212 4.93 0 7.37-2.492 8.483-7.212l5.143-21.897c.266-1.166 1.008-1.909 2.493-1.909 1.644 0 2.545.901 2.545 2.28v28.101h6.203V8.006c0-4.772-2.81-8.006-8.588-8.006-5.143 0-7.794 2.545-8.801 7.052l-5.036 21.897c-.319 1.272-1.06 2.014-2.386 2.014s-2.068-.742-2.386-2.015L79.795 7.051C78.787 2.545 75.87 0 70.78 0c-5.778 0-8.588 3.234-8.588 8.006v28.42h6.203V8.323zm81.6 28.101h6.945L144.852 4.612C143.685 1.22 141.14 0 137.43 0c-3.766 0-6.31 1.22-7.53 4.612l-12.567 31.813h6.893l2.916-7.37h20.042l2.81 7.37zm-14.422-28.79c.37-.848.954-1.22 1.803-1.22.848 0 1.43.372 1.75 1.22l5.83 15.482h-15.48l6.097-15.482zM162.136.636v6.257h18.61c3.394 0 4.93 2.173 4.93 4.771 0 2.492-1.43 4.932-4.982 4.932H167.81c-3.924 0-5.62 1.643-5.62 5.673v14.155h6.256V23.488c0-.636.318-.901.9-.901h11.135c8.38 0 11.507-5.833 11.507-11.24 0-5.727-3.446-10.71-11.506-10.71h-18.344zm33.297 0v6.257h10.445v29.532h6.31V6.893h10.445V.636h-27.2z" fill="#FEFEFE"/><path d="M241.35.636v35.79h6.256V24.364h-.02v-11.64h.02V.635h-6.256zm10.05 20.838c6.43.019 7.693.596 9.62 4.347l5.462 10.605h6.998l-5.78-11.24c-2.12-4.136-3.763-5.991-7.104-6.893 2.916-1.272 4.613-3.34 6.204-6.522L272.42.636h-6.734l-5.46 10.71c-1.977 3.849-2.985 4.432-8.826 4.453v5.674zm57.87 14.951h6.945l-12.09-31.813C302.96 1.22 300.416 0 296.704 0c-3.764 0-6.31 1.22-7.53 4.612L276.61 36.425h6.893l2.917-7.37h16.08l-2.372-5.938H288.75l6.097-15.482c.372-.848.955-1.22 1.803-1.22.85 0 1.432.372 1.75 1.22 3.662 9.723 7.186 19.13 10.87 28.79zM321.41.636v6.257h18.61c3.394 0 4.932 2.173 4.932 4.771 0 2.492-1.43 4.932-4.984 4.932h-12.884c-3.923 0-5.62 1.643-5.62 5.673v14.155h6.256V23.488c0-.636.32-.901.902-.901h11.134c8.377 0 11.505-5.833 11.505-11.24 0-5.727-3.445-10.71-11.504-10.71H321.41zm33.298 0v6.257h10.445v29.532h6.31V6.893h10.445V.636h-27.2z" fill="#00A0E3"/><path d="m1 5.253 13.407-.045V45.31h40.47" stroke="#00A0E3" stroke-width="4.63462" stroke-miterlimit="22.9256"/><path d="M25.549 60.953a5.524 5.524 0 1 0-.001-11.047 5.524 5.524 0 0 0-.001 11.047z" fill="#00A0E3"/><path d="M46.37 60.953a5.524 5.524 0 1 0 0-11.047 5.524 5.524 0 0 0 0 11.047z" fill="#00A0E3"/><path d="M62.145 42.574h7.694v10.474h-1.162v-9.375h-5.371v9.375h-1.162V42.574zm12.774 0h1.9c.638.01 1.16.073 1.57.188.408.115.764.299 1.067.55.314.283.552.617.715 1.005.162.387.243.8.243 1.24 0 .922-.3 1.641-.903 2.16-.602.518-1.405.777-2.41.777H76.08v4.554H74.92V42.574zm1.16 1.1v3.72h.96c.69 0 1.23-.164 1.616-.494.388-.33.587-.798.597-1.405-.01-.597-.212-1.047-.605-1.35-.392-.305-.96-.462-1.703-.472h-.864zm13.175 9.547c-1.504 0-2.776-.515-3.818-1.543-1.04-1.031-1.555-2.32-1.544-3.866 0-1.535.518-2.82 1.552-3.857 1.036-1.034 2.306-1.552 3.81-1.552 1.495 0 2.762.52 3.804 1.553 1.038 1.036 1.558 2.322 1.558 3.858 0 1.548-.52 2.836-1.56 3.867-1.041 1.028-2.308 1.544-3.802 1.544zm0-9.72c-1.159 0-2.143.422-2.954 1.262-.808.842-1.214 1.858-1.214 3.05-.01 1.2.393 2.218 1.207 3.056.816.835 1.803 1.254 2.963 1.254 1.149 0 2.13-.42 2.947-1.254.814-.838 1.222-1.856 1.222-3.057-.01-1.19-.421-2.206-1.23-3.048-.812-.84-1.79-1.262-2.94-1.262zm10.96-.926h6.377v9.375h1.193v3.297h-1.1v-2.199h-7.411v2.199h-1.1v-3.298c.315.02.624-.093.927-.339.305-.245.55-.603.74-1.074a5 5 0 0 0 .274-1.155c.058-.444.092-.975.102-1.593v-5.213zm1.163 1.1v4.113c-.01.712-.044 1.293-.102 1.743-.058.45-.15.843-.275 1.178a4.422 4.422 0 0 1-.352.683 3.3 3.3 0 0 1-.448.559h5.23v-8.277h-4.052zm17.368 9.374-1.235-2.952h-4.46l-1.253 2.952h-1.288l4.82-10.977 4.696 10.978h-1.28zm-5.23-4.051h3.536l-1.753-4.199-1.783 4.199zm14.793-6.423h1.16v4.49l3.997-4.49h1.437l-4.397 4.884 4.523 5.59h-1.474l-3.834-4.79-.25.283v4.508h-1.163v-4.507l-.253-.282-3.834 4.79h-1.473l4.522-5.59-4.397-4.884h1.437l3.997 4.49v-4.49zm17.68 10.474-1.235-2.952h-4.46l-1.254 2.952h-1.286l4.82-10.977 4.696 10.978h-1.28zm-5.23-4.051h3.537l-1.754-4.199-1.782 4.199zm21.52-5.324h-2.543v9.375h-1.162v-9.375h-2.544v-1.1h6.25v1.1zm9.383-1.1v1.1h-4.27v3.11h4.145v1.098h-4.146v4.069h4.27v1.098h-5.432V42.574h5.433zm3.384 10.475 3.085-5.418-2.803-5.056h1.31l2.176 3.957 2.23-3.956h1.318l-2.873 5.056 3.032 5.418h-1.314l-2.408-4.297-2.434 4.298h-1.32zm12.585-10.474v4.255h5.37v-4.256h1.163v10.474h-1.162v-5.12h-5.37v5.12h-1.163V42.574h1.162zm16.41 10.647c-1.505 0-2.777-.515-3.82-1.543-1.038-1.031-1.554-2.32-1.543-3.866 0-1.535.517-2.82 1.55-3.857 1.037-1.034 2.307-1.552 3.812-1.552 1.494 0 2.76.52 3.803 1.553 1.04 1.036 1.56 2.322 1.56 3.858 0 1.548-.52 2.836-1.56 3.867-1.042 1.028-2.31 1.544-3.803 1.544zm0-9.72c-1.16 0-2.144.422-2.955 1.262-.81.842-1.215 1.858-1.215 3.05-.01 1.2.393 2.218 1.207 3.056.816.835 1.802 1.254 2.962 1.254 1.15 0 2.13-.42 2.947-1.254.813-.838 1.22-1.856 1.22-3.057-.01-1.19-.42-2.206-1.23-3.048-.81-.84-1.79-1.262-2.938-1.262zm11.117-.926h6.375v10.474h-1.162v-9.375h-4.052v5.622c0 .984-.077 1.696-.234 2.136-.157.44-.393.802-.707 1.084-.23.21-.5.367-.81.472a3.032 3.032 0 0 1-.98.156c-.074 0-.17-.01-.292-.031a12.15 12.15 0 0 1-.337-.062v-1.1a1.8 1.8 0 0 0 .582.095c.188 0 .37-.034.55-.102.177-.067.334-.17.47-.305.2-.188.346-.46.44-.817.095-.356.147-1.02.157-1.994v-6.25zM231.41 53.22c-1.505 0-2.777-.515-3.82-1.543-1.038-1.031-1.553-2.32-1.543-3.866 0-1.535.518-2.82 1.55-3.857 1.038-1.034 2.307-1.552 3.812-1.552 1.494 0 2.76.52 3.803 1.553 1.04 1.036 1.56 2.322 1.56 3.858 0 1.548-.52 2.836-1.56 3.867-1.042 1.028-2.31 1.544-3.803 1.544zm0-9.72c-1.16 0-2.143.422-2.955 1.262-.81.842-1.214 1.858-1.214 3.05-.01 1.2.392 2.218 1.206 3.056.816.835 1.803 1.254 2.962 1.254 1.15 0 2.13-.42 2.947-1.254.813-.838 1.222-1.856 1.222-3.057-.01-1.19-.422-2.206-1.23-3.048-.812-.84-1.79-1.262-2.94-1.262zm10.05 9.548V42.574h4.774v1.1h-3.612v9.374h-1.162zm16.01 0V45.05l-7.288 8.47V42.573h1.162v8.03l7.287-8.47v10.914h-1.162zm11.642 0v-4.49a26.54 26.54 0 0 1-1.138.077c-.424.021-.767.032-1.03.032-.648 0-1.18-.045-1.593-.134-.413-.089-.746-.233-.997-.431a2.153 2.153 0 0 1-.722-.943c-.157-.388-.236-.885-.236-1.493v-3.093h1.162v2.936c0 .482.055.856.165 1.123.11.267.264.469.463.605.157.125.372.212.644.259.273.047.665.07 1.178.07.366.011.725.006 1.076-.015.35-.021.693-.053 1.028-.094v-4.884h1.162v10.474h-1.162zm11.675-10.474v1.1h-4.272v3.108h4.145v1.1h-4.145v4.067h4.27v1.098h-5.432V42.574h5.433zm12.38.86v1.446c-.214-.2-.44-.383-.67-.55a5.604 5.604 0 0 0-.67-.422 4.904 4.904 0 0 0-.876-.298 3.857 3.857 0 0 0-.895-.11c-1.182.01-2.168.437-2.96 1.278-.79.842-1.18 1.868-1.17 3.08 0 1.201.394 2.212 1.18 3.034.784.819 1.773 1.23 2.964 1.23.33.01.655-.03.98-.118a4.66 4.66 0 0 0 .93-.37c.205-.101.41-.227.608-.373.202-.146.393-.313.58-.502v1.445a5.312 5.312 0 0 1-3.105 1.018c-1.524 0-2.793-.516-3.81-1.544-1.01-1.031-1.52-2.309-1.52-3.835 0-1.546.514-2.84 1.537-3.88 1.026-1.04 2.308-1.561 3.855-1.561.565 0 1.1.09 1.604.268.505.178.984.434 1.437.767zm5.818-.86v4.49l4.46-4.49h1.57l-4.915 4.863 5.073 5.611h-1.61l-4.277-4.803-.302.296v4.508h-1.162V42.574h1.162zM313.92 53.22c-1.503 0-2.775-.515-3.817-1.543-1.04-1.031-1.555-2.32-1.544-3.866 0-1.535.517-2.82 1.55-3.857 1.037-1.034 2.307-1.552 3.81-1.552 1.496 0 2.763.52 3.805 1.553 1.04 1.036 1.56 2.322 1.56 3.858 0 1.548-.52 2.836-1.56 3.867-1.042 1.028-2.31 1.544-3.804 1.544zm0-9.72c-1.158 0-2.142.422-2.953 1.262-.81.842-1.215 1.858-1.215 3.05-.01 1.2.393 2.218 1.207 3.056.815.835 1.802 1.254 2.96 1.254 1.15 0 2.132-.42 2.95-1.254.813-.838 1.22-1.856 1.22-3.057-.01-1.19-.42-2.206-1.23-3.048-.81-.84-1.79-1.262-2.94-1.262zm17.338 9.548V45.05l-7.287 8.47V42.573h1.163v8.03l7.287-8.47v10.914h-1.162zm-5.497-12.846 1.1-.36c.074.271.228.486.464.643.236.157.526.236.87.236.337 0 .622-.078.857-.235.237-.157.397-.372.48-.644l1.1.362c-.2.503-.516.882-.95 1.139-.435.257-.93.385-1.485.385-.565 0-1.065-.128-1.5-.384a2.153 2.153 0 0 1-.934-1.138zm22.895 3.47h-2.543v9.376h-1.163v-9.375h-2.544v-1.1h6.25v1.1zm10.223 9.376-1.235-2.952h-4.46l-1.254 2.952h-1.29l4.822-10.977 4.696 10.978h-1.28zm-5.23-4.051h3.536l-1.753-4.199-1.782 4.199zm10.364-6.423h1.9c.64.01 1.162.073 1.57.188.41.115.765.299 1.07.55.313.283.55.617.713 1.005.163.387.243.8.243 1.24 0 .922-.3 1.641-.902 2.16-.603.518-1.406.777-2.41.777h-1.022v4.554h-1.162V42.574zm1.162 1.1v3.72h.958c.69 0 1.23-.164 1.618-.494.387-.33.586-.798.596-1.405-.01-.597-.212-1.047-.604-1.35-.393-.305-.96-.462-1.704-.472h-.864zm8.377 9.374V42.574h1.163v4.35h1.414c1.193 0 2.094.25 2.7.754.608.502.912 1.235.912 2.198-.012.994-.323 1.772-.936 2.332-.612.56-1.43.84-2.457.84h-2.796zm1.163-5.025v3.926h1.35c.462.01.844-.032 1.147-.127.304-.094.566-.246.786-.455.178-.168.31-.377.4-.628.09-.252.14-.54.15-.864 0-.388-.077-.712-.228-.974a1.62 1.62 0 0 0-.62-.612 2.318 2.318 0 0 0-.645-.204c-.24-.042-.612-.063-1.114-.063h-1.227zm6.125-5.45H382v10.475h-1.162V42.574z" fill="#FEFEFE"/><path d="M231.417 38.457a5.363 5.363 0 1 0 0-10.726 5.363 5.363 0 0 0 0 10.727z" fill="#00A0E3"/></svg>